<?xml version="1.0" standalone="no"?>
<!DOCTYPE svg PUBLIC "-//W3C//DTD SVG 20010904//EN"
 "http://www.w3.org/TR/2001/REC-SVG-20010904/DTD/svg10.dtd">
<svg version="1.0" xmlns="http://www.w3.org/2000/svg"
 width="106.000000pt" height="114.000000pt" viewBox="0 0 106.000000 114.000000"
 preserveAspectRatio="xMidYMid meet">
<metadata>
Created by potrace 1.15, written by Peter Selinger 2001-2017
</metadata>
<g transform="translate(0.000000,114.000000) scale(0.100000,-0.100000)"
fill="#63d963" stroke="none">
<path d="M593 1083 c-14 -3 -23 -12 -23 -22 0 -25 -46 -106 -79 -139 -24 -23
-81 -52 -104 -52 -4 0 -7 47 -7 105 l0 105 -166 0 -165 0 2 -199 2 -199 30 -6
c55 -11 79 -8 75 12 -2 11 -14 18 -38 20 l-35 3 2 154 c1 91 -2 157 -8 160
-27 17 15 25 137 25 l136 0 -4 -115 -3 -115 35 4 c85 10 142 58 200 168 28 53
23 52 198 63 l94 6 -8 -23 c-3 -13 -15 -35 -26 -50 -18 -27 -24 -28 -98 -28
l-80 0 -19 -38 c-34 -67 -150 -163 -221 -183 -60 -17 -58 -16 -76 -18 -8 0
-12 -5 -9 -11 3 -5 2 -10 -4 -10 -5 0 -13 5 -16 10 -13 20 -35 10 -35 -16 0
-26 1 -27 48 -21 142 17 252 87 345 221 12 16 29 19 141 20 70 1 129 -1 131
-5 13 -20 -114 -220 -187 -293 -26 -26 -48 -52 -48 -56 0 -4 22 -30 48 -56 75
-75 203 -277 186 -293 -9 -10 -125 -13 -209 -6 -39 3 -53 9 -64 27 -30 48
-138 145 -191 170 -58 28 -127 47 -172 48 -23 0 -28 -4 -28 -25 0 -27 10 -31
42 -14 15 8 19 8 14 0 -4 -6 -1 -12 6 -13 7 0 18 -2 23 -2 6 -1 15 -4 20 -8 6
-3 24 -9 42 -12 60 -13 183 -118 218 -185 15 -31 16 -31 95 -31 74 0 80 -1 98
-27 11 -16 23 -38 26 -51 l7 -22 -103 5 c-162 9 -160 8 -188 62 -57 108 -130
168 -204 168 l-28 0 1 -112 c2 -131 22 -117 -154 -113 -117 2 -130 5 -118 23
5 7 8 80 9 162 l0 150 37 3 c24 2 37 8 37 18 0 10 -14 14 -54 14 l-53 0 -2
-199 -2 -200 138 -3 c76 -2 150 -2 166 0 l27 3 0 99 c0 54 4 101 9 104 13 8
62 -14 97 -44 33 -28 84 -113 84 -140 0 -10 7 -21 16 -24 16 -6 344 -9 344 -3
0 2 -8 21 -19 43 -25 53 -34 84 -24 84 134 7 148 14 115 60 -12 16 -22 35 -22
43 0 24 -109 189 -156 237 -24 25 -44 53 -44 61 0 8 16 31 36 50 74 70 216
311 195 332 -5 5 -36 11 -70 14 -69 6 -69 6 -30 87 11 22 19 41 19 43 0 5
-312 1 -337 -4z"/>
<path d="M753 823 c-59 -71 -147 -159 -192 -193 -62 -46 -83 -50 -277 -50
-178 0 -212 -6 -187 -31 5 -5 90 -10 191 -10 122 1 191 -3 209 -12 61 -26 171
-125 235 -208 44 -59 67 -81 77 -75 17 11 -6 56 -62 121 -29 33 -61 67 -72 77
-11 9 -38 32 -60 52 -22 20 -45 36 -51 36 -6 0 -17 7 -24 15 -10 12 -10 18 0
30 7 9 15 13 18 11 19 -20 262 235 262 275 0 26 -25 12 -67 -38z"/>
</g>
</svg>
